<?xml version="1.0" encoding="utf-8"?>
<!-- Generator: Adobe Illustrator 25.0.0, SVG Export Plug-In . SVG Version: 6.00 Build 0)  -->
<svg version="1.1" id="Layer_1" xmlns="http://www.w3.org/2000/svg" xmlns:xlink="http://www.w3.org/1999/xlink" x="0px" y="0px"
	 viewBox="0 0 540 460" style="enable-background:new 0 0 540 460;" xml:space="preserve">
<style type="text/css">
	.st0{fill-rule:evenodd;clip-rule:evenodd;fill:#CBD6E2;}
	.st1{fill-rule:evenodd;clip-rule:evenodd;fill:#F2F5F8;}
</style>
<path id="Rectangle-2" class="st0" d="M151.1,228.7h219.6c4.1,0,7.3,3,7.3,6.9s-3.2,6.9-7.3,6.9H151.1c-4.1,0-7.3-3-7.3-6.9
	S147.2,228.7,151.1,228.7z"/>
<circle id="Oval" class="st0" cx="160.6" cy="389.7" r="17.6"/>
<circle class="st0" cx="211.8" cy="389.7" r="17.6"/>
<circle id="Oval-Copy" class="st0" cx="261.6" cy="389.7" r="17.6"/>
<circle id="Oval_1_" class="st0" cx="317.2" cy="389.7" r="17.6"/>
<path id="Rectangle-2-Copy" class="st0" d="M151.1,261.8h219.6c4.1,0,7.3,3,7.3,6.9c0,3.9-3.2,6.9-7.3,6.9H151.1
	c-4.1,0-7.3-3-7.3-6.9C143.8,264.8,147.2,261.8,151.1,261.8z"/>
<path class="st0" d="M148.6,294.8h223.2c2.6,0,4.8,3,4.8,6.9s-2.2,6.9-4.8,6.9H148.6c-2.6,0-4.8-3-4.8-6.9S146,294.8,148.6,294.8z"
	/>
<path class="st0" d="M148.6,327.9h223.2c2.6,0,4.8,3,4.8,6.9c0,3.9-2.2,6.9-4.8,6.9H148.6c-2.6,0-4.8-3-4.8-6.9
	C143.8,330.9,146,327.9,148.6,327.9z"/>
<g id="Image-Placeholder">
	<g id="Mask">
		<circle class="st1" cx="215.8" cy="126.7" r="73"/>
	</g>
	<g id="Group-24" transform="translate(29.000000, 38.000000)">
		<path id="Path" class="st0" d="M222.5,69.8c-2.6-1-5.5-0.3-7.4,1.8l-26.7,31.1c-0.8,0.9-2.1,1-2.7,0.5l-13.1-14.7
			c-1.4-1.1-3.2-1.6-5-1.3c-1.8,0.3-3.4,1.2-4.3,2.6l-15,17.8c-1.6,2-1.9,4.7-0.7,7c1.1,2.3,3.4,3.8,6,3.8h66.5c3.7,0,6.7-3,6.7-6.7
			V76C226.8,73.3,225.1,70.8,222.5,69.8"/>
		<path class="st0" d="M154.3,73.9c4.1,0,7.4-3.3,7.4-7.4s-3.3-7.4-7.4-7.4s-7.4,3.3-7.4,7.4S150.2,73.9,154.3,73.9"/>
	</g>
</g>
</svg>
