<?xml version="1.0" encoding="utf-8"?>
<!-- Generator: Adobe Illustrator 25.0.0, SVG Export Plug-In . SVG Version: 6.00 Build 0)  -->
<svg version="1.1" id="Layer_1" xmlns="http://www.w3.org/2000/svg" xmlns:xlink="http://www.w3.org/1999/xlink" x="0px" y="0px"
	 viewBox="0 0 540 460" style="enable-background:new 0 0 540 460;" xml:space="preserve">
<style type="text/css">
	.st0{fill-rule:evenodd;clip-rule:evenodd;fill:#CBD6E2;}
	.st1{fill-rule:evenodd;clip-rule:evenodd;fill:#F2F5F8;}
</style>
<path id="Rectangle-2" class="st0" d="M151.1,67.5h219.6c4.1,0,7.3,3,7.3,6.9c0,3.9-3.2,6.9-7.3,6.9H151.1c-4.1,0-7.3-3-7.3-6.9
	C143.8,70.5,147.2,67.5,151.1,67.5z"/>
<circle id="Oval" class="st0" cx="160.6" cy="395.4" r="17.6"/>
<circle class="st0" cx="211.8" cy="395.4" r="17.6"/>
<circle id="Oval-Copy" class="st0" cx="261.6" cy="395.4" r="17.6"/>
<circle id="Oval_1_" class="st0" cx="317.2" cy="395.4" r="17.6"/>
<path id="Rectangle-2-Copy" class="st0" d="M151.1,100.5h219.6c4.1,0,7.3,3,7.3,6.9c0,3.9-3.2,6.9-7.3,6.9H151.1
	c-4.1,0-7.3-3-7.3-6.9C143.8,103.6,147.2,100.5,151.1,100.5z"/>
<path class="st0" d="M148.6,133.6h223.2c2.6,0,4.8,3,4.8,6.9c0,3.9-2.2,6.9-4.8,6.9H148.6c-2.6,0-4.8-3-4.8-6.9
	C143.8,136.6,146,133.6,148.6,133.6z"/>
<path class="st0" d="M148.6,166.6h223.2c2.6,0,4.8,3,4.8,6.9s-2.2,6.9-4.8,6.9H148.6c-2.6,0-4.8-3-4.8-6.9S146,166.6,148.6,166.6z"
	/>
<g id="Image-Placeholder">
	<g id="Mask">
		<circle class="st1" cx="215.8" cy="283.3" r="73"/>
	</g>
	<g id="Group-24" transform="translate(29.000000, 38.000000)">
		<path id="Path" class="st0" d="M222.5,226.4c-2.6-1-5.5-0.3-7.4,1.8l-26.7,31.1c-0.8,0.9-2.1,1-2.7,0.5l-13.1-14.7
			c-1.4-1.1-3.2-1.6-5-1.3c-1.8,0.3-3.4,1.2-4.3,2.6l-15,17.8c-1.6,2-1.9,4.7-0.7,7c1.1,2.3,3.4,3.8,6,3.8h66.5c3.7,0,6.7-3,6.7-6.7
			v-35.7C226.8,229.8,225.1,227.4,222.5,226.4"/>
		<path class="st0" d="M154.3,230.5c4.1,0,7.4-3.3,7.4-7.4c0-4.1-3.3-7.4-7.4-7.4s-7.4,3.3-7.4,7.4
			C146.9,227.2,150.2,230.5,154.3,230.5"/>
	</g>
</g>
</svg>
