<?xml version="1.0" encoding="utf-8"?>
<!-- Generator: Adobe Illustrator 25.0.0, SVG Export Plug-In . SVG Version: 6.00 Build 0)  -->
<svg version="1.1" id="Layer_1" xmlns="http://www.w3.org/2000/svg" xmlns:xlink="http://www.w3.org/1999/xlink" x="0px" y="0px"
	 viewBox="0 0 540 460" style="enable-background:new 0 0 540 460;" xml:space="preserve">
<style type="text/css">
	.st0{fill-rule:evenodd;clip-rule:evenodd;fill:#F2F5F8;}
	.st1{fill-rule:evenodd;clip-rule:evenodd;fill:#CBD6E2;}
</style>
<g id="Image-Placeholder">
	<g id="Mask">
		<circle class="st0" cx="138" cy="235.1" r="73"/>
	</g>
	<g id="Group-24" transform="translate(29.000000, 38.000000)">
		<path id="Path" class="st1" d="M144.7,178.2c-2.6-1-5.5-0.3-7.4,1.8l-26.7,31.1c-0.8,0.9-2.1,1-2.7,0.5L94.8,197
			c-1.4-1.1-3.2-1.6-5-1.3c-1.8,0.3-3.4,1.2-4.3,2.6l-15,17.8c-1.6,2-1.9,4.7-0.7,7c1.1,2.3,3.4,3.8,6,3.8h66.5c3.7,0,6.7-3,6.7-6.7
			v-35.7C148.9,181.7,147.3,179.2,144.7,178.2"/>
		<path class="st1" d="M76.5,182.3c4.1,0,7.4-3.3,7.4-7.4s-3.3-7.4-7.4-7.4s-7.4,3.3-7.4,7.4S72.4,182.3,76.5,182.3"/>
	</g>
</g>
<path id="Rectangle-2" class="st1" d="M247.8,164.2h219.6c4.1,0,7.3,3,7.3,6.9s-3.2,6.9-7.3,6.9H247.8c-4.1,0-7.3-3-7.3-6.9
	S243.8,164.2,247.8,164.2z"/>
<circle id="Oval" class="st1" cx="257.2" cy="325.2" r="17.6"/>
<circle class="st1" cx="308.5" cy="325.2" r="17.6"/>
<circle id="Oval-Copy" class="st1" cx="358.3" cy="325.2" r="17.6"/>
<circle id="Oval_1_" class="st1" cx="413.9" cy="325.2" r="17.6"/>
<path id="Rectangle-2-Copy" class="st1" d="M247.8,197.3h219.6c4.1,0,7.3,3,7.3,6.9c0,3.9-3.2,6.9-7.3,6.9H247.8
	c-4.1,0-7.3-3-7.3-6.9C240.4,200.3,243.8,197.3,247.8,197.3z"/>
<path class="st1" d="M245.3,230.3h223.2c2.6,0,4.8,3,4.8,6.9c0,3.9-2.2,6.9-4.8,6.9H245.3c-2.6,0-4.8-3-4.8-6.9
	C240.4,233.4,242.6,230.3,245.3,230.3z"/>
<path class="st1" d="M245.3,263.4h223.2c2.6,0,4.8,3,4.8,6.9c0,3.9-2.2,6.9-4.8,6.9H245.3c-2.6,0-4.8-3-4.8-6.9
	C240.4,266.4,242.6,263.4,245.3,263.4z"/>
</svg>
