<?xml version="1.0" encoding="utf-8"?>
<!-- Generator: Adobe Illustrator 25.0.0, SVG Export Plug-In . SVG Version: 6.00 Build 0)  -->
<svg version="1.1" id="Layer_1" xmlns="http://www.w3.org/2000/svg" xmlns:xlink="http://www.w3.org/1999/xlink" x="0px" y="0px"
	 viewBox="0 0 540 287" style="enable-background:new 0 0 540 287;" xml:space="preserve">
<style type="text/css">
	.st0{fill-rule:evenodd;clip-rule:evenodd;fill:#CBD6E2;}
	.st1{fill:url(#SVGID_1_);}
	.st2{fill:url(#SVGID_2_);}
</style>
<path id="Rectangle-2" class="st0" d="M67.2,41h216.9c4,0,7.2,2.2,7.2,5s-3.2,5-7.2,5H67.2c-4,0-7.2-2.2-7.2-5S63.2,41,67.2,41z"/>
<circle id="Oval" class="st0" cx="75.4" cy="247.1" r="12"/>
<circle class="st0" cx="110.4" cy="247.1" r="12"/>
<circle id="Oval-Copy" class="st0" cx="144.4" cy="247.1" r="12"/>
<circle class="st0" cx="175.3" cy="247.1" r="12"/>
<circle id="Oval-Copy_1_" class="st0" cx="209.3" cy="247.1" r="12"/>
<path id="Rectangle-2-Copy" class="st0" d="M67.2,69h216.9c4,0,7.2,2.2,7.2,5s-3.2,5-7.2,5H67.2c-4,0-7.2-2.2-7.2-5S63.2,69,67.2,69
	z"/>
<path id="Rectangle-2-Copy_1_" class="st0" d="M67.2,95.7h216.9c4,0,7.2,2.2,7.2,5s-3.2,5-7.2,5H67.2c-4,0-7.2-2.2-7.2-5
	S63.2,95.7,67.2,95.7z"/>
<g>
	<g>
		<linearGradient id="SVGID_1_" gradientUnits="userSpaceOnUse" x1="358.6496" y1="229.1003" x2="464.9977" y2="122.7522">
			<stop  offset="7.533979e-04" style="stop-color:#00E5E2"/>
			<stop  offset="0.33" style="stop-color:#D80096"/>
			<stop  offset="0.7" style="stop-color:#FFDA00"/>
			<stop  offset="0.7407" style="stop-color:#F8DB00"/>
			<stop  offset="0.8004" style="stop-color:#E4DD00"/>
			<stop  offset="0.8716" style="stop-color:#C4E000"/>
			<stop  offset="0.9512" style="stop-color:#98E400"/>
			<stop  offset="1" style="stop-color:#79E700"/>
		</linearGradient>
		<path class="st1" d="M411.8,100.7c-27.8,0-52,15.1-65,37.5c7.1,0.3,13.2,1.9,18.3,4.6c10.4-14.6,27.5-24.2,46.7-24.2
			c31.6,0,57.3,25.7,57.3,57.3s-25.7,57.3-57.3,57.3c-18.8,0-35.5-9.1-46-23.1c-5,2.8-11.1,4.5-18.4,4.8
			c13.2,21.7,37.1,36.2,64.4,36.2c41.5,0,75.2-33.7,75.2-75.2S453.3,100.7,411.8,100.7z"/>
		<linearGradient id="SVGID_2_" gradientUnits="userSpaceOnUse" x1="383.2298" y1="204.4583" x2="439.7326" y2="147.9554">
			<stop  offset="7.533979e-04" style="stop-color:#00E5E2"/>
			<stop  offset="0.33" style="stop-color:#D80096"/>
			<stop  offset="0.7" style="stop-color:#FFDA00"/>
			<stop  offset="0.7407" style="stop-color:#F8DB00"/>
			<stop  offset="0.8004" style="stop-color:#E4DD00"/>
			<stop  offset="0.8716" style="stop-color:#C4E000"/>
			<stop  offset="0.9512" style="stop-color:#98E400"/>
			<stop  offset="1" style="stop-color:#79E700"/>
		</linearGradient>
		<polygon class="st2" points="418.8,148.3 401.4,172.2 401.4,147.1 383.5,147.1 383.5,204.8 401.4,204.7 401.4,181.1 418.7,204.7 
			440,204.7 418.1,176.5 440.1,148.3 		"/>
	</g>
	<g>
		<path d="M305.7,148.4l0,56.4l-17.9,0l0-8c-0.7,1.3-1.6,2.6-2.8,3.7c-1.2,1.1-2.5,2.1-4,2.9c-1.5,0.8-3.2,1.5-5,2
			c-1.8,0.5-3.6,0.8-5.4,0.8c-4.1,0-7.8-0.8-11.2-2.3c-3.4-1.5-6.3-3.6-8.7-6.2c-2.4-2.6-4.3-5.7-5.6-9.4c-1.3-3.6-2-7.5-2-11.8
			c0-4.2,0.7-8.1,2-11.8c1.3-3.6,3.2-6.7,5.6-9.4c2.4-2.6,5.3-4.7,8.7-6.2c3.4-1.5,7.1-2.3,11.2-2.3c1.8,0,3.6,0.3,5.4,0.8
			c1.8,0.5,3.5,1.2,5,2c1.5,0.9,2.9,1.9,4,3c1.2,1.2,2.1,2.4,2.8,3.6l0-8.1L305.7,148.4z M274.3,191c2,0,3.9-0.4,5.5-1.2
			c1.6-0.8,3-1.8,4.2-3.1c1.2-1.3,2.1-2.8,2.7-4.6c0.7-1.8,1-3.6,1-5.6c0-1.9-0.3-3.8-1-5.5c-0.7-1.7-1.6-3.2-2.8-4.6
			c-1.2-1.3-2.6-2.4-4.2-3.2c-1.6-0.8-3.5-1.2-5.5-1.2c-2,0-3.9,0.4-5.5,1.2c-1.6,0.8-3,1.8-4.2,3.2c-1.2,1.3-2.1,2.8-2.7,4.6
			c-0.7,1.7-1,3.6-1,5.5c0,2,0.3,3.8,1,5.6c0.7,1.8,1.6,3.3,2.8,4.6c1.2,1.3,2.6,2.3,4.2,3.1C270.5,190.6,272.3,191,274.3,191z"/>
	</g>
	<g>
		<polygon points="132.4,204.9 150.3,204.9 150.3,181.3 167.6,204.9 188.9,204.9 167,176.7 189,148.5 167.7,148.5 150.3,172.4 
			150.3,147.3 132.4,147.3 		"/>
	</g>
	<g>
		<path d="M237.7,164.7c-1.2-0.3-2.3-0.5-3.2-0.6c-0.9-0.1-1.9-0.2-3.2-0.2c-4.9,0-8.9,1.4-11.8,4.3c-3,2.9-4.4,7.8-4.4,14.6l0,22
			l-17.9,0l0-56.4l17.9,0l0,9.1c1.3-2.7,3.5-5,6.6-7c3.1-2,6.6-3,10.6-3c2.1,0,3.9,0.3,5.4,0.9L237.7,164.7z"/>
	</g>
	<g>
		<path d="M356.5,170.5c-0.4-2.5-1.4-4.5-3.1-6.1c-1.7-1.6-4.3-2.3-8-2.3c-2.1,0-4,0.4-5.6,1.2c-1.6,0.8-2.9,1.8-3.9,3.2
			c-1,1.3-1.8,2.9-2.3,4.6c-0.5,1.8-0.8,3.6-0.8,5.6c0,2,0.3,3.8,0.8,5.6c0.5,1.8,1.3,3.3,2.3,4.6c1.1,1.3,2.4,2.4,4.1,3.2
			c1.7,0.8,3.7,1.2,6,1.2c3.1,0,5.5-0.6,7-1.9c1.6-1.3,2.7-3.1,3.5-5.6l17.9,0c-0.5,3.2-1.4,6.2-2.8,9c-1.4,2.8-3.3,5.2-5.7,7.2
			c-2.4,2-5.4,3.6-8.8,4.8c-3.5,1.2-7.4,1.8-11.9,1.8c-4.9,0-9.3-0.8-13-2.4c-3.8-1.6-7-3.8-9.5-6.5c-2.6-2.7-4.5-5.9-5.8-9.5
			c-1.3-3.6-1.9-7.3-1.9-11.2c0-3.9,0.6-7.6,1.9-11.2c1.3-3.6,3.2-6.7,5.8-9.5c2.6-2.7,5.7-4.9,9.5-6.6c3.8-1.6,8.1-2.5,13-2.5
			c4.8,0,8.9,0.7,12.4,2c3.5,1.3,6.5,3.1,8.8,5.3c2.4,2.2,4.2,4.7,5.5,7.5c1.3,2.8,2.1,5.8,2.4,8.8L356.5,170.5z"/>
	</g>
	<g>
		<path d="M138.9,131.9c0.5,0.1,0.9,0.3,1.3,0.4c0.4,0.2,0.8,0.4,1.1,0.6c0.3,0.2,0.6,0.5,0.8,0.9c0.2,0.3,0.3,0.8,0.3,1.3
			c0,0.6-0.1,1.2-0.4,1.6c-0.3,0.4-0.6,0.8-1.1,1.1c-0.4,0.3-1,0.5-1.6,0.6c-0.6,0.1-1.2,0.2-1.9,0.2c-1.5,0-2.8-0.3-3.6-1
			c-0.9-0.7-1.3-1.6-1.3-2.9l3.4,0c0,0.6,0.2,1,0.5,1.2s0.7,0.4,1.2,0.4c0.4,0,0.8-0.1,1-0.2c0.3-0.2,0.4-0.4,0.4-0.8
			c0-0.2-0.1-0.4-0.2-0.5c-0.1-0.1-0.3-0.2-0.5-0.4c-0.2-0.1-0.5-0.2-0.9-0.3c-0.4-0.1-0.8-0.2-1.3-0.4c-0.4-0.1-0.9-0.3-1.3-0.4
			s-0.8-0.3-1.1-0.6c-0.3-0.2-0.6-0.5-0.7-0.9c-0.2-0.3-0.3-0.8-0.3-1.3c0-1.1,0.4-2,1.3-2.5c0.9-0.5,2-0.8,3.5-0.8
			c0.8,0,1.5,0.1,2.1,0.3s1.1,0.4,1.5,0.8c0.4,0.3,0.7,0.7,0.9,1.2c0.2,0.4,0.3,0.9,0.3,1.4l-3.4,0c0-0.4-0.1-0.8-0.3-1
			c-0.2-0.2-0.6-0.4-1.1-0.4c-0.3,0-0.6,0.1-0.9,0.2c-0.3,0.2-0.4,0.4-0.4,0.7c0,0.2,0.1,0.4,0.2,0.5c0.1,0.1,0.3,0.2,0.5,0.3
			c0.2,0.1,0.5,0.2,0.9,0.3C138.1,131.6,138.5,131.7,138.9,131.9z"/>
		<path d="M157.9,138.2c-0.3,0-0.6,0.1-1,0.1c-0.4,0-0.8,0.1-1.3,0.1c-0.4,0-0.8,0-1.3-0.1c-0.4-0.1-0.9-0.2-1.2-0.5
			c-0.4-0.2-0.7-0.6-0.9-1.1c-0.2-0.5-0.4-1.2-0.4-2.1l0-4.6l-1.7,0l0-2.6l1.7,0l0-3.2l3.4,0l0,3.2l2.5,0l0,2.6l-2.5,0l0,3.9
			c0,0.4,0,0.7,0.1,1c0.1,0.2,0.2,0.4,0.3,0.5c0.1,0.1,0.3,0.2,0.5,0.3c0.2,0,0.4,0.1,0.6,0.1c0.2,0,0.4,0,0.7,0
			c0.2,0,0.4,0,0.6-0.1L157.9,138.2z"/>
		<path d="M178.3,127.4l0,10.8l-3.4,0l0-1.5c-0.3,0.6-0.8,1-1.4,1.3s-1.3,0.5-2.2,0.5c-0.7,0-1.3-0.1-1.8-0.3
			c-0.5-0.2-0.9-0.5-1.2-0.9c-0.3-0.4-0.6-0.9-0.7-1.4c-0.1-0.5-0.2-1.2-0.2-2l0-6.4l3.4,0l0,5.5c0,0.8,0.1,1.4,0.4,1.9
			c0.3,0.5,0.8,0.7,1.5,0.7c0.7,0,1.2-0.2,1.6-0.7c0.3-0.5,0.5-1.2,0.5-2l0-5.4L178.3,127.4z"/>
		<path d="M197,136.7c-0.1,0.3-0.3,0.5-0.5,0.7c-0.2,0.2-0.5,0.4-0.8,0.6c-0.3,0.2-0.6,0.3-1,0.4c-0.3,0.1-0.7,0.1-1,0.1
			c-0.8,0-1.5-0.1-2.1-0.4c-0.7-0.3-1.2-0.7-1.7-1.2c-0.5-0.5-0.8-1.1-1.1-1.8c-0.3-0.7-0.4-1.4-0.4-2.3c0-0.8,0.1-1.6,0.4-2.3
			c0.3-0.7,0.6-1.3,1.1-1.8c0.5-0.5,1-0.9,1.7-1.2c0.7-0.3,1.4-0.4,2.1-0.4c0.3,0,0.7,0,1,0.1c0.3,0.1,0.7,0.2,1,0.4
			c0.3,0.2,0.5,0.4,0.8,0.6c0.2,0.2,0.4,0.5,0.5,0.7l0-6.4l3.4,0l0,15.7l-3.4,0L197,136.7z M194.4,135.6c0.4,0,0.7-0.1,1.1-0.2
			c0.3-0.2,0.6-0.3,0.8-0.6c0.2-0.2,0.4-0.5,0.5-0.9c0.1-0.3,0.2-0.7,0.2-1.1c0-0.4-0.1-0.7-0.2-1.1c-0.1-0.3-0.3-0.6-0.5-0.9
			c-0.2-0.3-0.5-0.5-0.8-0.6c-0.3-0.1-0.7-0.2-1.1-0.2c-0.4,0-0.7,0.1-1.1,0.2c-0.3,0.2-0.6,0.4-0.8,0.6c-0.2,0.3-0.4,0.5-0.5,0.9
			c-0.1,0.3-0.2,0.7-0.2,1.1c0,0.4,0.1,0.7,0.2,1.1c0.1,0.3,0.3,0.6,0.5,0.9c0.2,0.2,0.5,0.4,0.8,0.6
			C193.6,135.5,194,135.6,194.4,135.6z"/>
		<path d="M210.6,123.8c0-0.6,0.2-1.1,0.6-1.5c0.4-0.4,0.9-0.6,1.6-0.6c0.3,0,0.6,0.1,0.9,0.2c0.3,0.1,0.5,0.3,0.7,0.5
			c0.2,0.2,0.4,0.4,0.5,0.7c0.1,0.3,0.2,0.6,0.2,0.9c0,0.3-0.1,0.6-0.2,0.8c-0.1,0.3-0.3,0.5-0.5,0.7c-0.2,0.2-0.4,0.4-0.7,0.5
			c-0.3,0.1-0.6,0.2-0.9,0.2c-0.3,0-0.6-0.1-0.9-0.2c-0.3-0.1-0.5-0.3-0.7-0.5c-0.2-0.2-0.4-0.4-0.5-0.7
			C210.7,124.4,210.6,124.1,210.6,123.8z M211.1,127.4l3.4,0l0,10.8l-3.4,0L211.1,127.4z"/>
		<path d="M230.6,138.5c-0.9,0-1.8-0.2-2.5-0.5c-0.7-0.3-1.4-0.7-1.9-1.2c-0.5-0.5-0.9-1.1-1.2-1.8c-0.3-0.7-0.4-1.4-0.4-2.2
			c0-0.8,0.1-1.5,0.4-2.2s0.7-1.3,1.2-1.8c0.5-0.5,1.1-0.9,1.9-1.2c0.7-0.3,1.6-0.5,2.5-0.5c0.9,0,1.8,0.2,2.5,0.5
			c0.7,0.3,1.4,0.7,1.9,1.2c0.5,0.5,0.9,1.1,1.2,1.8c0.3,0.7,0.4,1.4,0.4,2.2c0,0.8-0.1,1.5-0.4,2.2c-0.3,0.7-0.7,1.3-1.2,1.8
			c-0.5,0.5-1.1,0.9-1.9,1.2C232.3,138.3,231.5,138.5,230.6,138.5z M230.6,135.5c0.4,0,0.7-0.1,1.1-0.2c0.3-0.1,0.6-0.3,0.8-0.6
			c0.2-0.3,0.4-0.5,0.5-0.9c0.1-0.3,0.2-0.7,0.2-1.1c0-0.4-0.1-0.7-0.2-1.1c-0.1-0.3-0.3-0.6-0.5-0.9c-0.2-0.2-0.5-0.4-0.8-0.6
			c-0.3-0.1-0.7-0.2-1.1-0.2c-0.4,0-0.7,0.1-1.1,0.2c-0.3,0.2-0.6,0.3-0.8,0.6c-0.2,0.2-0.4,0.5-0.5,0.9s-0.2,0.7-0.2,1.1
			c0,0.4,0.1,0.7,0.2,1.1c0.1,0.3,0.3,0.6,0.5,0.9c0.2,0.3,0.5,0.5,0.8,0.6C229.8,135.5,230.2,135.5,230.6,135.5z"/>
	</g>
</g>
</svg>
